<?xml version="1.0" encoding="utf-8"?>
<!-- Generator: Adobe Illustrator 19.2.1, SVG Export Plug-In . SVG Version: 6.00 Build 0)  -->
<svg version="1.1" id="layer" xmlns="http://www.w3.org/2000/svg" xmlns:xlink="http://www.w3.org/1999/xlink" x="0px" y="0px"
	 viewBox="0 0 652 652" style="enable-background:new 0 0 652 652;" xml:space="preserve">
<style type="text/css">
	.st0{fill:#6CBF5B;}
	.st1{fill:#F8CF29;}
	.st2{fill:#12B25B;}
</style>
<g>
	<path class="st0" d="M291.6,238.4c-6.7-5.1-10.7-10.1-9-12.1c1.9-2.1,6.6,0.5,13.7,1.7c36.9,5.7,67.7-2.3,91.9-15.5
		c24.3-13.2,47.7-34.7,62.9-68.8c3-6.6,3.3-12,6.1-12.4c2.6-0.3,4.7,5.7,5.3,14.1c3.5,48.2-30.3,84.6-56.9,99
		C379,258.9,330.1,267.5,291.6,238.4"/>
	<path class="st1" d="M293.1,222.5c-12.2-1.8-20.4-3.9-22.2-4.2c-2.5-0.3-3.4,1.4-1.4,3.1c2.3,1.8,4.8,1.7,5,3.6
		c0.1,1.3-0.9,2.2-2.6,2.4c-2,0.3-4.6-0.6-6.2-1.7c-7.9-5.5-6.3-14.5,1.8-19.4c5.6-3.4,6.7-10.5,7.4-15.6
		c4.4-33.9,31.2-64.9,58.3-79.6c27.1-14.7,67.6-20.4,98.4-5.6c4.7,2.2,11.2,5.2,17.1,2.3c8.6-4.2,17-0.6,17.3,9
		c0.1,1.9-0.7,4.6-2,6.2c-1.1,1.3-2.5,1.6-3.4,0.9c-1.6-1.3-0.1-3.3-0.4-6.2c-0.3-2.6-2.2-2.8-3.3-0.5c-0.8,1.7-3.4,9.7-8.6,20.9
		c-15.4,33.6-37.2,53.3-63.8,67.7C358.1,220.2,329.7,227.9,293.1,222.5z"/>
	<path class="st2" d="M505.2,71.7c-10.3,19-21.5,36.9-33.7,53.5c0.7,3.1,1.3,6.8,1.8,11.1c7.8-10.5,15.2-21.8,22.2-33.9
		c5.6,62.5,42.9,111.8,154.2,72.8c-65.6,130.3-43.1,183-38.5,210.2c-253.5,6.7-366.7,99.2-454.9,169.1C118,518.9,54.7,485.2-9,480.2
		c64.9-83,95.5-179.4,90.7-246c72.2,25.5,144.8,33.4,211.1,19.8c-7-5.2-12.7-9.9-16.5-14c-60.6,5.6-133.2-6.2-220.9-40.5
		c12.1,122.6-5,188.8-75.7,285.6c64.1,1.9,140.8,45.2,178.4,86.5C300.4,434,461.7,390.2,658.9,420.9
		c-53.3-77.6-46.4-168.3,3.4-256.2C522.3,220,508.4,127.7,505.2,71.7"/>
	<path class="st2" d="M578.4,356.8c0,5-4,9-9,9c-4.9,0-9-4-9-9c0-4.9,4-9,9-9C574.4,347.8,578.4,351.9,578.4,356.8 M577.1,356.8
		c0,4.2-3.4,7.7-7.7,7.7c-4.2,0-7.6-3.4-7.6-7.7c0-4.2,3.4-7.6,7.6-7.6C573.7,349.2,577.1,352.5,577.1,356.8 M564.9,360.8l2.3-0.3
		l0.9-3.1c0,0,0.5,0,0.9,0l1.1,2.7l2.6-0.3l-1.4-3.1c1.1-0.5,2.1-1.5,2.3-2.4c0.6-2-0.7-3.3-2.6-3.2c-2.1,0.1-3.4,0.5-3.4,0.5
		L564.9,360.8z M571.4,354.3c-0.2,0.7-1.3,1.6-2.7,1.5l0.7-2.5C571.3,352.7,571.6,353.7,571.4,354.3"/>
	<path class="st2" d="M470.2,187.1c6-5.6,12.1-11.3,18.2-16.8c-1.7,18.5-3.4,37-5,55.5c12.2-4,24.4-8.2,36.6-12.3
		c-0.5,7.2-3.6,14.2-8.5,19.5c-8.5,7.6-20.1,10.1-30.5,13.9c-3.8,36.9-8.2,73.8-12.9,110.6c-13.9,3.8-27.9,7.5-41.7,11.3
		c5.3-36.1,10.6-72.2,15.9-108.3c-5.7,1.9-11.3,3.9-17,5.9c0.9-6.1,1.8-12.2,2.7-18.3C447.7,232.5,462.5,211,470.2,187.1"/>
	<path class="st2" d="M381.6,271.1c13.5-6.2,26.9-12.3,40.4-18.4c-6.6,41.3-13.2,82.4-19.7,123.7c-13.7,5-27.3,10.3-41,15.3
		C368.1,351.5,374.9,311.3,381.6,271.1"/>
	<path class="st2" d="M345.7,286.5c7.4-7.3,17.4-11.7,27.7-12.9c-2.4,12.7-4.8,25.4-7.2,38.1c-6.8,0.1-13.7,1.7-19.3,5.6
		c-7,4.7-11.1,12.9-12.1,21.2c-3.6,23.3-7.3,46.7-10.9,70c-13.7,7.2-27.5,14.4-41.3,21.5c4.2-24.3,8.2-48.6,12.3-72.9
		c2.3-12.8,4.1-26,2.3-39c-1-5.4-2.4-11.4-6.9-15c7-2.4,14-5,21-7.2c7.2,3.3,13.3,9.3,16.3,16.6C332.5,303.1,338,293.8,345.7,286.5"
		/>
	<path class="st2" d="M118.7,305.8c22.8-23,58.8-30.2,89.5-21.6c-2.5,12.9-5.1,25.6-7.7,38.4c-7.4-8.8-18-15.4-29.7-16
		c-10.7-0.2-24.5,4.3-27.5,15.9c-1.9,9.6,4.8,18.1,11.6,24c9.2,7.4,18.2,15.7,23.6,26.3c5.4,10.3,6.4,22.5,3.8,33.8
		c-6.6,29.2-27.5,55-55.1,67.1c-19.8,8.9-42.3,11.3-63.6,7.1c4.5-16.1,9.2-32.1,13.8-48.2c14.9,15.1,42,14.9,56.5-0.5
		c7.6-7.8,11.5-20.6,5.9-30.6c-4.9-9.1-13.8-14.8-22.2-20.4c-9.9-6.8-16.6-18.2-16.8-30.4C100.9,334.3,107.3,317.7,118.7,305.8"/>
	<path class="st2" d="M241.6,320c10.7-3.7,23.4-5.3,33.7,0.6c13.9,8.3,16.3,27,12.9,41.5c-4.4,20.4-14.2,39.8-29.2,54.5
		c-11.3,11.2-25.3,19-40.2,24.5c-1.2,0.5-2.1-0.9-1.1-1.9c5-4.7,9-10.3,13.4-15.5c8.8-12.3,14.3-26.6,19.2-40.8
		c3.6-10.9,5.4-22.6,4.4-34.1c-0.3-3.9-1.9-8.1-5.6-9.9c-4.4-2.1-9.7,0.4-12.2,4.2c-3.6,5.2-5.1,11.5-6.1,17.6
		c-6.7,38.2-13.5,76.4-20.2,114.6c-13.5,9.7-27.1,19.2-40.7,28.8c6.6-36,13.2-72,19.8-107.9c2.2-12.5,5.2-25,5.2-37.7
		c0.5-7.4-2.1-16.4-10.1-18.6C203.8,333.2,222.7,326.7,241.6,320"/>
	<path class="st2" d="M555.6,222.3c6.3-0.8,13.3,0.2,18.1,4.6c4.8,4.3,6.3,11.1,5.8,17.4c-0.8,11-6.6,20.8-13.7,29
		c-10.8,11.3-25.1,18.8-39.8,23.8c-2.4,0.8-2.5-1.3-1.5-2.1c14.7-11.4,24.7-28.3,28.3-46.5c0.9-3.6,0.9-10.5-3.7-10.5
		c-4.7,0-9,6.7-11.9,11.3c-7.5,13.7-11.1,29.1-14.1,44.3c-1.3,7.2-1.6,14.9,1.6,21.7c1.9,4.2,6,7.4,10.7,7.6
		c6.9,0.3,13.3-3.2,18.6-7.4c8.6-7,15.1-16.2,20.4-25.9c1.6,1.7,3.1,3.4,4.6,5.1c-7.6,18.6-20,36-37.5,46.2
		c-10.2,6.1-22.5,10.3-34.4,7.9c-9.1-1.6-17-8-20.6-16.4c-5-11.6-3.8-24.9-1.1-36.9c4.6-20,14.7-38.9,29.9-52.8
		C526.6,232.5,540.4,224.3,555.6,222.3"/>
</g>
</svg>
